<svg xmlns="http://www.w3.org/2000/svg" data-name="Layer 1" width="949" height="568.6528" viewBox="0 0 949 568.6528" xmlns:xlink="http://www.w3.org/1999/xlink"><path d="M673.5,734.3264h-211a1,1,0,1,1,0-2h211a1,1,0,0,1,0,2Z" transform="translate(-125.5 -165.6736)" fill="#ccc"/><path d="M886.07028,243.34113a10.05579,10.05579,0,0,1,10.98633,10.81926l32.70724,14.395-15.60167,10.07083-28.66745-15.21368a10.11027,10.11027,0,0,1,.57555-20.07138Z" transform="translate(-125.5 -165.6736)" fill="#a0616a"/><circle cx="892.50184" cy="35.14965" r="24.56103" fill="#a0616a"/><polygon points="848.05 385.364 835.79 385.363 829.958 338.075 848.052 338.076 848.05 385.364" fill="#a0616a"/><path d="M976.67645,562.92134l-39.53052-.00147v-.5a15.38605,15.38605,0,0,1,15.38647-15.38623h.001l24.1438.001Z" transform="translate(-125.5 -165.6736)" fill="#2f2e41"/><polygon points="899.05 385.364 886.79 385.363 880.958 338.075 899.052 338.076 899.05 385.364" fill="#a0616a"/><path d="M1027.67645,562.92134l-39.53052-.00147v-.5a15.38605,15.38605,0,0,1,15.38647-15.38623h.001l24.1438.001Z" transform="translate(-125.5 -165.6736)" fill="#2f2e41"/><path d="M1023.96878,540.96559a4.50658,4.50658,0,0,1-.54883-.03418l-17.9458-2.209a4.49289,4.49289,0,0,1-3.94434-4.23535L996.30032,416.7234a1.49993,1.49993,0,0,0-2.85742-.55371l-13.43433,44.78418L977.242,532.8904a4.498,4.498,0,0,1-5.0227,4.29492l-15.54053-1.8291a4.48512,4.48512,0,0,1-3.97315-4.55664l1.31934-67.71387,10.52881-106.292.47046.01758,64.02221,2.46777-.5769,177.20117a4.50146,4.50146,0,0,1-4.50073,4.48535Z" transform="translate(-125.5 -165.6736)" fill="#2f2e41"/><path d="M1026.62014,368.992c-.03906,0-.07812,0-.11743-.001l-64.479-1.68945a4.49979,4.49979,0,0,1-4.34107-5.10449l12.39014-91.19141a44.13237,44.13237,0,0,1,18.68018-30.792,38.19591,38.19591,0,0,1,31.10815-5.54688c22.5061,5.70313,36.00757,29.87012,30.09717,53.87207l-18.968,77.0293A4.52648,4.52648,0,0,1,1026.62014,368.992Z" transform="translate(-125.5 -165.6736)" fill="#3f3d56"/><path d="M942.02981,296.5779a21.82211,21.82211,0,0,1-11.96411-3.55469l-37.60229-24.66992a4.4992,4.4992,0,0,1-.79883-6.85645l5.66455-5.98047a4.48379,4.48379,0,0,1,4.93164-1.08691l42.00171,16.72559,38.90869-27.78614a16.15455,16.15455,0,1,1,16.44629,27.67774l-48.08814,23.35742A21.74021,21.74021,0,0,1,942.02981,296.5779Z" transform="translate(-125.5 -165.6736)" fill="#3f3d56"/><path d="M1026.51241,224.31132c4.19022.9894,9.24531,1.74863,12.23986-1.34484a12.5105,12.5105,0,0,0,1.41592-1.89006l3.9152-5.97741c2.9992-4.57894,6.05107-9.27733,7.3205-14.60185a23.74125,23.74125,0,0,0-17.90687-28.67359c-5.84568-1.30882-11.56585-3.56078-17.54216-3.15s-12.98468.27592-18-3c.31289,1.46046,2.00253,7.9134,2.00253,7.9134s-7.5414,6.91867-9.054,8.64384a14.1663,14.1663,0,0,1,19.723,10.67121c.4281,2.62585.17666,5.538,1.73668,7.69318,1.48376,2.0498,4.14514,2.768,6.38173,3.95152a15.56319,15.56319,0,0,1,6.84685,19.04477Z" transform="translate(-125.5 -165.6736)" fill="#2f2e41"/><path d="M997.02308,377.78843H793.43361a9.66388,9.66388,0,0,1-9.653-9.653V264.58566a9.66388,9.66388,0,0,1,9.653-9.653H997.02308a9.66387,9.66387,0,0,1,9.65295,9.653V368.13548A9.66387,9.66387,0,0,1,997.02308,377.78843Z" transform="translate(-125.5 -165.6736)" fill="#ccc"/><path d="M994.683,370.7681H795.77372a4.97829,4.97829,0,0,1-4.97273-4.97273v-98.8696a4.97829,4.97829,0,0,1,4.97273-4.97273H994.683a4.9783,4.9783,0,0,1,4.97274,4.97273v98.8696A4.9783,4.9783,0,0,1,994.683,370.7681Z" transform="translate(-125.5 -165.6736)" fill="#fff"/><path d="M983.16361,395.73038l-22.37044-22.37015,28.68.725V393.1169a3.63886,3.63886,0,0,1-2.28169,3.41475,3.75017,3.75017,0,0,1-1.43786.2908A3.64556,3.64556,0,0,1,983.16361,395.73038Z" transform="translate(-125.5 -165.6736)" fill="#ccc"/><path d="M970.46457,311.92684H869.83988a4.68022,4.68022,0,1,1,0-9.36044H970.46457a4.68022,4.68022,0,0,1,0,9.36044Z" transform="translate(-125.5 -165.6736)" fill="#ccc"/><path d="M937.703,292.03591H869.83988a4.68022,4.68022,0,1,1,0-9.36043H937.703a4.68021,4.68021,0,1,1,0,9.36043Z" transform="translate(-125.5 -165.6736)" fill="#ccc"/><circle cx="702.68566" cy="131.62756" r="14.62568" fill="#f59e0b"/><circle cx="813.95497" cy="179.69184" r="4.68022" fill="#e6e6e6"/><circle cx="830.33573" cy="179.69184" r="4.68022" fill="#e6e6e6"/><circle cx="846.71649" cy="179.69184" r="4.68022" fill="#e6e6e6"/><path d="M993.8706,365.474a10.05578,10.05578,0,0,1,12.8385-8.53983l20.78344-29.06936,6.665,17.33237-20.75813,24.94752a10.11027,10.11027,0,0,1-19.52885-4.6707Z" transform="translate(-125.5 -165.6736)" fill="#a0616a"/><path d="M1017.67789,363.9055a4.53555,4.53555,0,0,1-.98107-.02466,4.48884,4.48884,0,0,1-3.20506-2.06l-4.39223-6.96833a4.47981,4.47981,0,0,1,.16818-5.04824l26.602-36.55347-17.29062-44.57587a16.06991,16.06991,0,0,1,8.81348-20.73946h0a16.154,16.154,0,0,1,22.07333,11.65569l10.72775,52.37339a21.8839,21.8839,0,0,1-6.65051,20.45445l-33.21,30.32536A4.4868,4.4868,0,0,1,1017.67789,363.9055Z" transform="translate(-125.5 -165.6736)" fill="#3f3d56"/></svg>