<svg xmlns="http://www.w3.org/2000/svg" data-name="Layer 1" width="949" height="568.6528" viewBox="0 0 949 568.6528" xmlns:xlink="http://www.w3.org/1999/xlink"><path d="M1073.5,565.3264h-211a1,1,0,0,1,0-2h211a1,1,0,0,1,0,2Z" transform="translate(-125.5 -165.6736)" fill="#ccc"/><path d="M382.11757,316.44985H178.5281a9.66388,9.66388,0,0,1-9.653-9.653V203.24708a9.66387,9.66387,0,0,1,9.653-9.653H382.11757a9.66387,9.66387,0,0,1,9.65295,9.653V306.7969A9.66388,9.66388,0,0,1,382.11757,316.44985Z" transform="translate(-125.5 -165.6736)" fill="#ccc"/><path d="M379.77746,309.42952H180.86821a4.97829,4.97829,0,0,1-4.97273-4.97273v-98.8696a4.9783,4.9783,0,0,1,4.97273-4.97274H379.77746a4.9783,4.9783,0,0,1,4.97273,4.97274v98.8696A4.97829,4.97829,0,0,1,379.77746,309.42952Z" transform="translate(-125.5 -165.6736)" fill="#fff"/><path d="M368.2581,334.3918l-22.37044-22.37015,28.68.725v19.03167a3.63886,3.63886,0,0,1-2.28169,3.41475,3.7502,3.7502,0,0,1-1.43786.2908A3.64558,3.64558,0,0,1,368.2581,334.3918Z" transform="translate(-125.5 -165.6736)" fill="#ccc"/><path d="M355.55905,250.58826H254.93437a4.68022,4.68022,0,1,1,0-9.36044H355.55905a4.68022,4.68022,0,0,1,0,9.36044Z" transform="translate(-125.5 -165.6736)" fill="#ccc"/><path d="M322.79753,230.69733H254.93437a4.68022,4.68022,0,1,1,0-9.36044h67.86316a4.68022,4.68022,0,1,1,0,9.36044Z" transform="translate(-125.5 -165.6736)" fill="#ccc"/><circle cx="87.78015" cy="70.28897" r="14.62568" fill="#f59e0b"/><circle cx="199.04946" cy="118.35326" r="4.68022" fill="#e6e6e6"/><circle cx="215.43022" cy="118.35326" r="4.68022" fill="#e6e6e6"/><circle cx="231.81098" cy="118.35326" r="4.68022" fill="#e6e6e6"/><path d="M373.6744,183.645a10.05575,10.05575,0,0,0-5.31,14.47619l-23.4203,26.99016,18.40886,2.43876,19.418-26.0042A10.11027,10.11027,0,0,0,373.6744,183.645Z" transform="translate(-125.5 -165.6736)" fill="#ffb8b8"/><path d="M217.29809,194.45055a10.0558,10.0558,0,0,1-7.75445,13.32757l-5.82806,35.25639L190.08807,230.42l7.62367-31.54613a10.11027,10.11027,0,0,1,19.58635-4.42336Z" transform="translate(-125.5 -165.6736)" fill="#ffb8b8"/><polygon points="128.399 385.364 140.659 385.363 146.491 338.075 128.397 338.076 128.399 385.364" fill="#ffb8b8"/><path d="M250.77164,547.03462l24.1438-.001h.001a15.38605,15.38605,0,0,1,15.38647,15.38623v.5l-39.53052.00147Z" transform="translate(-125.5 -165.6736)" fill="#2f2e41"/><polygon points="65.399 385.364 77.659 385.363 83.491 338.075 65.397 338.076 65.399 385.364" fill="#ffb8b8"/><path d="M187.77164,547.03462l24.1438-.001h.001a15.38605,15.38605,0,0,1,15.38647,15.38623v.5l-39.53052.00147Z" transform="translate(-125.5 -165.6736)" fill="#2f2e41"/><circle cx="125.83969" cy="37.94709" r="24.56103" fill="#ffb8b8"/><path d="M248.39557,535.32816l-2.03076-129.40625a1.49985,1.49985,0,0,0-2.95923-.32422l-33.291,126.57617a4.55506,4.55506,0,0,1-4.571,3.459l-18.29-.78223a4.50093,4.50093,0,0,1-4.272-5.06055l28.24878-162.6582.05786-.459,78.68213,3.72265.51318.02344L273.61115,535.59867a4.51892,4.51892,0,0,1-4.48731,4.166H252.89508A4.51825,4.51825,0,0,1,248.39557,535.32816Z" transform="translate(-125.5 -165.6736)" fill="#2f2e41"/><path d="M310.54034,381.35746l-114.17773-9.37012a4.49926,4.49926,0,0,1-3.86353-6.01465l17.98072-49.71191,1.03467-59.00293a16.18147,16.18147,0,0,1,16.667-15.89063l7.593-6.88281h27.81958l2.42236,3.17578,19.35718,2.97461a16.27225,16.27225,0,0,1,13.58007,13.833L315.368,376.27249a4.5006,4.5006,0,0,1-4.45386,5.10059C310.7901,381.37308,310.66534,381.3682,310.54034,381.35746Z" transform="translate(-125.5 -165.6736)" fill="#2f2e41"/><path d="M288.29425,246.35453l48.68359-14.26368L359.01056,203.083a4.49872,4.49872,0,0,1,5.35229-1.416l13.75635,5.87988a4.49956,4.49956,0,0,1,2.11914,6.40332l-16.46557,28.25586A25.19721,25.19721,0,0,1,352.119,252.62894l-57.26123,25.3125Z" transform="translate(-125.5 -165.6736)" fill="#2f2e41"/><path d="M194.89288,267.69144a20.86486,20.86486,0,0,1-8.60376-18.5752l2.13648-28.30761a4.51169,4.51169,0,0,1,4.48755-4.16114h.03979l16.13184.14356a4.5009,4.5009,0,0,1,4.376,5.36523l-2.99316,15.27149,21.36011,9.02539-17.98706,34.99316Z" transform="translate(-125.5 -165.6736)" fill="#2f2e41"/><path d="M265.62782,174.1697s-25.685-13.83022-39.685,2.49239,5.3339,41.8476,5.3339,41.8476l27.548,3.4744s1-18.72648,7.559-18.36293S293.31286,180.35469,265.62782,174.1697Z" transform="translate(-125.5 -165.6736)" fill="#2f2e41"/><path d="M337.5,564.3264h-211a1,1,0,0,1,0-2h211a1,1,0,0,1,0,2Z" transform="translate(-125.5 -165.6736)" fill="#ccc"/></svg>